<mxfile host="app.diagrams.net" modified="2021-12-14T21:51:45.988Z" agent="5.0 (Windows NT 10.0; Win64; x64) AppleWebKit/537.36 (KHTML, like Gecko) Chrome/96.0.4664.93 Safari/537.36" etag="2-FB05CIUJQoEH9ayBEb" version="15.9.4" type="github">
  <diagram id="gkVf720507WsYnpDl80n" name="Page-1">
    <mxGraphModel dx="1422" dy="762" grid="1" gridSize="10" guides="1" tooltips="1" connect="1" arrows="1" fold="1" page="1" pageScale="1" pageWidth="827" pageHeight="1169" math="0" shadow="0">
      <root>
        <mxCell id="0" />
        <mxCell id="1" parent="0" />
        <mxCell id="9AG01d1PfL2hRvUb7Ar9-1" value="Inicio" style="ellipse;whiteSpace=wrap;html=1;fontSize=20;" vertex="1" parent="1">
          <mxGeometry x="290" y="10" width="160" height="130" as="geometry" />
        </mxCell>
        <mxCell id="9AG01d1PfL2hRvUb7Ar9-4" value="" style="endArrow=classic;html=1;rounded=0;fontSize=20;entryX=0.5;entryY=0;entryDx=0;entryDy=0;exitX=0.5;exitY=1;exitDx=0;exitDy=0;" edge="1" parent="1" source="9AG01d1PfL2hRvUb7Ar9-1" target="9AG01d1PfL2hRvUb7Ar9-5">
          <mxGeometry width="50" height="50" relative="1" as="geometry">
            <mxPoint x="320" y="20" as="sourcePoint" />
            <mxPoint x="320" y="100" as="targetPoint" />
            <Array as="points" />
          </mxGeometry>
        </mxCell>
        <mxCell id="9AG01d1PfL2hRvUb7Ar9-5" value="A data do evento é superior a data atual?" style="rhombus;whiteSpace=wrap;html=1;fontSize=18;" vertex="1" parent="1">
          <mxGeometry x="260" y="240.01" width="220" height="170" as="geometry" />
        </mxCell>
        <mxCell id="9AG01d1PfL2hRvUb7Ar9-6" value="" style="endArrow=classic;html=1;rounded=0;fontSize=18;exitX=1;exitY=0.5;exitDx=0;exitDy=0;entryX=0;entryY=0.5;entryDx=0;entryDy=0;" edge="1" parent="1" source="9AG01d1PfL2hRvUb7Ar9-5" target="9AG01d1PfL2hRvUb7Ar9-11">
          <mxGeometry width="50" height="50" relative="1" as="geometry">
            <mxPoint x="500" y="350" as="sourcePoint" />
            <mxPoint x="620" y="325" as="targetPoint" />
          </mxGeometry>
        </mxCell>
        <mxCell id="9AG01d1PfL2hRvUb7Ar9-7" value="SIM" style="text;html=1;align=center;verticalAlign=middle;resizable=0;points=[];autosize=1;strokeColor=none;fillColor=none;fontSize=18;fontColor=#006600;" vertex="1" parent="1">
          <mxGeometry x="510" y="290" width="50" height="30" as="geometry" />
        </mxCell>
        <mxCell id="9AG01d1PfL2hRvUb7Ar9-8" value="" style="endArrow=classic;html=1;rounded=0;fontSize=18;fontColor=#006600;entryX=1;entryY=0.5;entryDx=0;entryDy=0;exitX=0;exitY=0.5;exitDx=0;exitDy=0;" edge="1" parent="1" source="9AG01d1PfL2hRvUb7Ar9-5" target="9AG01d1PfL2hRvUb7Ar9-26">
          <mxGeometry width="50" height="50" relative="1" as="geometry">
            <mxPoint x="100" y="230" as="sourcePoint" />
            <mxPoint x="160" y="225" as="targetPoint" />
            <Array as="points" />
          </mxGeometry>
        </mxCell>
        <mxCell id="9AG01d1PfL2hRvUb7Ar9-10" value="Nao" style="text;html=1;align=center;verticalAlign=middle;resizable=0;points=[];autosize=1;strokeColor=none;fillColor=none;fontSize=18;fontColor=#FF0000;rotation=0;" vertex="1" parent="1">
          <mxGeometry x="200" y="290" width="50" height="30" as="geometry" />
        </mxCell>
        <mxCell id="9AG01d1PfL2hRvUb7Ar9-11" value="Digitar data de nascimento" style="rounded=0;whiteSpace=wrap;html=1;fontSize=18;fontColor=#000000;" vertex="1" parent="1">
          <mxGeometry x="600" y="281.88" width="130" height="86.25" as="geometry" />
        </mxCell>
        <mxCell id="9AG01d1PfL2hRvUb7Ar9-12" value="" style="endArrow=classic;html=1;rounded=0;fontSize=18;fontColor=#000000;exitX=1;exitY=0.5;exitDx=0;exitDy=0;entryX=0.5;entryY=0;entryDx=0;entryDy=0;" edge="1" parent="1" source="9AG01d1PfL2hRvUb7Ar9-11" target="9AG01d1PfL2hRvUb7Ar9-13">
          <mxGeometry width="50" height="50" relative="1" as="geometry">
            <mxPoint x="650" y="430" as="sourcePoint" />
            <mxPoint x="665" y="440" as="targetPoint" />
            <Array as="points">
              <mxPoint x="869" y="325" />
            </Array>
          </mxGeometry>
        </mxCell>
        <mxCell id="9AG01d1PfL2hRvUb7Ar9-13" value="&lt;font style=&quot;font-size: 18px&quot;&gt;Data de nascimento - data atual&lt;span style=&quot;text-align: left ; background-color: rgb(255 , 255 , 255)&quot;&gt;&amp;nbsp;≥ 18 anos&lt;/span&gt;&lt;/font&gt;&lt;br&gt;&amp;nbsp;" style="rhombus;whiteSpace=wrap;html=1;fontSize=18;fontColor=#000000;" vertex="1" parent="1">
          <mxGeometry x="778.75" y="440" width="180" height="150" as="geometry" />
        </mxCell>
        <mxCell id="9AG01d1PfL2hRvUb7Ar9-15" value="SIM" style="text;html=1;align=center;verticalAlign=middle;resizable=0;points=[];autosize=1;strokeColor=none;fillColor=none;fontSize=18;fontColor=#006600;" vertex="1" parent="1">
          <mxGeometry x="510" y="290" width="50" height="30" as="geometry" />
        </mxCell>
        <mxCell id="9AG01d1PfL2hRvUb7Ar9-16" value="SIM" style="text;html=1;align=center;verticalAlign=middle;resizable=0;points=[];autosize=1;strokeColor=none;fillColor=none;fontSize=18;fontColor=#006600;" vertex="1" parent="1">
          <mxGeometry x="883.75" y="600" width="50" height="30" as="geometry" />
        </mxCell>
        <mxCell id="9AG01d1PfL2hRvUb7Ar9-17" value="Nao" style="text;html=1;align=center;verticalAlign=middle;resizable=0;points=[];autosize=1;strokeColor=none;fillColor=none;fontSize=18;fontColor=#FF0000;rotation=0;" vertex="1" parent="1">
          <mxGeometry x="730" y="480" width="50" height="30" as="geometry" />
        </mxCell>
        <mxCell id="9AG01d1PfL2hRvUb7Ar9-18" value="" style="endArrow=classic;html=1;rounded=0;fontFamily=Helvetica;fontSize=18;fontColor=#000000;exitX=0.5;exitY=1;exitDx=0;exitDy=0;entryX=0.5;entryY=0;entryDx=0;entryDy=0;" edge="1" parent="1" source="9AG01d1PfL2hRvUb7Ar9-13" target="9AG01d1PfL2hRvUb7Ar9-20">
          <mxGeometry width="50" height="50" relative="1" as="geometry">
            <mxPoint x="760" y="540" as="sourcePoint" />
            <mxPoint x="840" y="505" as="targetPoint" />
          </mxGeometry>
        </mxCell>
        <mxCell id="9AG01d1PfL2hRvUb7Ar9-19" value="" style="endArrow=classic;html=1;rounded=0;fontFamily=Helvetica;fontSize=18;fontColor=#000000;exitX=0;exitY=0.5;exitDx=0;exitDy=0;entryX=1;entryY=0.5;entryDx=0;entryDy=0;" edge="1" parent="1" source="9AG01d1PfL2hRvUb7Ar9-13" target="9AG01d1PfL2hRvUb7Ar9-23">
          <mxGeometry width="50" height="50" relative="1" as="geometry">
            <mxPoint x="470" y="510" as="sourcePoint" />
            <mxPoint x="580" y="300" as="targetPoint" />
            <Array as="points" />
          </mxGeometry>
        </mxCell>
        <mxCell id="9AG01d1PfL2hRvUb7Ar9-20" value="&lt;span style=&quot;box-sizing: border-box; color: rgb(13, 37, 50); background-color: rgb(255, 255, 255);&quot;&gt;Listar participantes e palestrantes por evento.&lt;/span&gt;" style="rounded=0;whiteSpace=wrap;html=1;fontFamily=Helvetica;fontSize=18;fontColor=#000000;fontStyle=0" vertex="1" parent="1">
          <mxGeometry x="803.75" y="670" width="130" height="95" as="geometry" />
        </mxCell>
        <mxCell id="9AG01d1PfL2hRvUb7Ar9-21" value="" style="endArrow=classic;html=1;rounded=0;fontFamily=Helvetica;fontSize=18;fontColor=#000000;exitX=0.5;exitY=1;exitDx=0;exitDy=0;entryX=0.5;entryY=0;entryDx=0;entryDy=0;" edge="1" parent="1" source="9AG01d1PfL2hRvUb7Ar9-20" target="9AG01d1PfL2hRvUb7Ar9-22">
          <mxGeometry width="50" height="50" relative="1" as="geometry">
            <mxPoint x="490" y="810" as="sourcePoint" />
            <mxPoint x="867.5" y="840" as="targetPoint" />
          </mxGeometry>
        </mxCell>
        <mxCell id="9AG01d1PfL2hRvUb7Ar9-22" value="A quantidade de participantes é inferior a 100?" style="rhombus;whiteSpace=wrap;html=1;fontFamily=Helvetica;fontSize=18;fontColor=#000000;" vertex="1" parent="1">
          <mxGeometry x="781.25" y="830" width="175" height="170" as="geometry" />
        </mxCell>
        <mxCell id="9AG01d1PfL2hRvUb7Ar9-23" value="Mensagem de idade insuficiente" style="rounded=0;whiteSpace=wrap;html=1;fontFamily=Helvetica;fontSize=18;fontColor=#000000;" vertex="1" parent="1">
          <mxGeometry x="605" y="485" width="120" height="60" as="geometry" />
        </mxCell>
        <mxCell id="9AG01d1PfL2hRvUb7Ar9-25" value="" style="endArrow=classic;html=1;rounded=0;fontFamily=Helvetica;fontSize=18;fontColor=#000000;exitX=0.5;exitY=0;exitDx=0;exitDy=0;entryX=0.5;entryY=1;entryDx=0;entryDy=0;" edge="1" parent="1" source="9AG01d1PfL2hRvUb7Ar9-23" target="9AG01d1PfL2hRvUb7Ar9-11">
          <mxGeometry width="50" height="50" relative="1" as="geometry">
            <mxPoint x="410" y="470" as="sourcePoint" />
            <mxPoint x="460" y="420" as="targetPoint" />
          </mxGeometry>
        </mxCell>
        <mxCell id="9AG01d1PfL2hRvUb7Ar9-26" value="Mensagem de Data invalida" style="rounded=0;whiteSpace=wrap;html=1;fontFamily=Helvetica;fontSize=18;fontColor=#000000;" vertex="1" parent="1">
          <mxGeometry x="60" y="295.01" width="120" height="60" as="geometry" />
        </mxCell>
        <mxCell id="9AG01d1PfL2hRvUb7Ar9-27" value="" style="endArrow=classic;html=1;rounded=0;fontFamily=Helvetica;fontSize=18;fontColor=#000000;exitX=0.5;exitY=0;exitDx=0;exitDy=0;entryX=0;entryY=0.5;entryDx=0;entryDy=0;" edge="1" parent="1" source="9AG01d1PfL2hRvUb7Ar9-26" target="9AG01d1PfL2hRvUb7Ar9-1">
          <mxGeometry width="50" height="50" relative="1" as="geometry">
            <mxPoint x="600" y="380" as="sourcePoint" />
            <mxPoint x="280" y="80" as="targetPoint" />
            <Array as="points">
              <mxPoint x="120" y="75" />
            </Array>
          </mxGeometry>
        </mxCell>
        <mxCell id="9AG01d1PfL2hRvUb7Ar9-28" value="SIM" style="text;html=1;align=center;verticalAlign=middle;resizable=0;points=[];autosize=1;strokeColor=none;fillColor=none;fontSize=18;fontColor=#006600;" vertex="1" parent="1">
          <mxGeometry x="980" y="885" width="50" height="30" as="geometry" />
        </mxCell>
        <mxCell id="9AG01d1PfL2hRvUb7Ar9-29" value="Nao" style="text;html=1;align=center;verticalAlign=middle;resizable=0;points=[];autosize=1;strokeColor=none;fillColor=none;fontSize=18;fontColor=#FF0000;rotation=0;" vertex="1" parent="1">
          <mxGeometry x="720" y="880" width="50" height="30" as="geometry" />
        </mxCell>
        <mxCell id="9AG01d1PfL2hRvUb7Ar9-30" value="Fim" style="ellipse;whiteSpace=wrap;html=1;fontFamily=Helvetica;fontSize=18;fontColor=#000000;" vertex="1" parent="1">
          <mxGeometry x="808.75" y="1080" width="120" height="80" as="geometry" />
        </mxCell>
        <mxCell id="9AG01d1PfL2hRvUb7Ar9-31" value="Concluir cadastro" style="rounded=0;whiteSpace=wrap;html=1;fontFamily=Helvetica;fontSize=18;fontColor=#000000;" vertex="1" parent="1">
          <mxGeometry x="1060" y="885" width="120" height="60" as="geometry" />
        </mxCell>
        <mxCell id="9AG01d1PfL2hRvUb7Ar9-32" value="" style="endArrow=classic;html=1;rounded=0;fontFamily=Helvetica;fontSize=18;fontColor=#000000;exitX=1;exitY=0.5;exitDx=0;exitDy=0;entryX=0;entryY=0.5;entryDx=0;entryDy=0;" edge="1" parent="1" source="9AG01d1PfL2hRvUb7Ar9-22" target="9AG01d1PfL2hRvUb7Ar9-31">
          <mxGeometry width="50" height="50" relative="1" as="geometry">
            <mxPoint x="690" y="980" as="sourcePoint" />
            <mxPoint x="740" y="930" as="targetPoint" />
          </mxGeometry>
        </mxCell>
        <mxCell id="9AG01d1PfL2hRvUb7Ar9-33" value="Mensagem de limite de participantes ultrapassado" style="rounded=0;whiteSpace=wrap;html=1;fontFamily=Helvetica;fontSize=18;fontColor=#000000;" vertex="1" parent="1">
          <mxGeometry x="550" y="867.5" width="145" height="95" as="geometry" />
        </mxCell>
        <mxCell id="9AG01d1PfL2hRvUb7Ar9-34" value="" style="endArrow=classic;html=1;rounded=0;fontFamily=Helvetica;fontSize=18;fontColor=#000000;exitX=0;exitY=0.5;exitDx=0;exitDy=0;entryX=1;entryY=0.5;entryDx=0;entryDy=0;" edge="1" parent="1" source="9AG01d1PfL2hRvUb7Ar9-22" target="9AG01d1PfL2hRvUb7Ar9-33">
          <mxGeometry width="50" height="50" relative="1" as="geometry">
            <mxPoint x="480" y="920" as="sourcePoint" />
            <mxPoint x="530" y="870" as="targetPoint" />
          </mxGeometry>
        </mxCell>
        <mxCell id="9AG01d1PfL2hRvUb7Ar9-35" value="" style="endArrow=classic;html=1;rounded=0;fontFamily=Helvetica;fontSize=18;fontColor=#000000;exitX=0.5;exitY=1;exitDx=0;exitDy=0;entryX=0;entryY=0.5;entryDx=0;entryDy=0;" edge="1" parent="1" source="9AG01d1PfL2hRvUb7Ar9-33" target="9AG01d1PfL2hRvUb7Ar9-30">
          <mxGeometry width="50" height="50" relative="1" as="geometry">
            <mxPoint x="590" y="930" as="sourcePoint" />
            <mxPoint x="640" y="880" as="targetPoint" />
            <Array as="points">
              <mxPoint x="623" y="1120" />
            </Array>
          </mxGeometry>
        </mxCell>
        <mxCell id="9AG01d1PfL2hRvUb7Ar9-36" value="" style="endArrow=classic;html=1;rounded=0;fontFamily=Helvetica;fontSize=18;fontColor=#000000;exitX=0.5;exitY=1;exitDx=0;exitDy=0;entryX=1;entryY=0.5;entryDx=0;entryDy=0;" edge="1" parent="1" source="9AG01d1PfL2hRvUb7Ar9-31" target="9AG01d1PfL2hRvUb7Ar9-30">
          <mxGeometry width="50" height="50" relative="1" as="geometry">
            <mxPoint x="590" y="930" as="sourcePoint" />
            <mxPoint x="640" y="880" as="targetPoint" />
            <Array as="points">
              <mxPoint x="1120" y="1120" />
            </Array>
          </mxGeometry>
        </mxCell>
      </root>
    </mxGraphModel>
  </diagram>
</mxfile>
